<svg id="Layer_1" data-name="Layer 1" xmlns="http://www.w3.org/2000/svg" viewBox="0 0 867.51 610.4"><defs><style>.cls-1{fill:#fdc308;}.cls-2{font-size:76.11px;}.cls-2,.cls-3{font-family:Roboto-Medium, Roboto;font-weight:500;}.cls-3{font-size:43.06px;}.cls-4{fill:#333;}</style></defs><title>ashphaltLogo1</title><path class="cls-1" d="M505.26,290.11H669.38a6.23,6.23,0,0,1,6.23,6.23V322.4a0,0,0,0,1,0,0H499a0,0,0,0,1,0,0V296.34A6.23,6.23,0,0,1,505.26,290.11Z"/><path d="M560.67,333.31a62.89,62.89,0,0,0,6.92,1.7c15.19,2,30.44,3.7,45.6,5.95,12.94,1.91,25.84,4.19,38.66,6.76,14.51,2.92,29,5.86,43.33,9.67,17.55,4.68,35.13,9.5,52.18,15.67,18.25,6.59,36.1,14.4,53.76,22.47a379.27,379.27,0,0,1,58.81,33.18c4.45,3.08,8.63,6.56,12.94,9.85-.16.55-.32,1.11-.47,1.66-1.92.07-4,.69-5.72.11-8.14-2.74-16.15-5.89-24.26-8.75-13.63-4.8-27.23-9.69-40.95-14.2q-20-6.57-40.33-12.39c-10.53-3-21.19-5.61-31.87-8.08-12.51-2.9-25.06-5.64-37.65-8.12s-25.27-4.76-38-6.76c-16.27-2.56-32.59-4.86-48.92-7-7.54-1-15.15-1.61-22.74-2.19-26.65-2-53.32-3.88-80-6-34.45-2.68-68.93-1.34-103.4-.77-14,.23-28,.5-41.95,1.34-16.45,1-32.87,2.46-49.29,4s-33.07,3.1-49.54,5.15c-15.35,1.92-30.63,4.39-45.9,6.8-12.46,2-24.9,4-37.28,6.38-14,2.66-27.89,5.58-41.78,8.62-11.56,2.53-23.11,5.13-34.54,8.2-13.82,3.71-27.59,7.67-41.21,12C42.08,423.41,27.25,429,12.22,433.91c-2,.66-4.56-.32-6.87-.54,1.36-1.91,2.31-4.47,4.14-5.62C30.83,414.39,53,402.46,76.36,393.11c15.39-6.15,30.72-12.5,46.37-17.92,15.17-5.24,30.66-9.57,46.1-14q16.51-4.72,33.27-8.56c10.32-2.33,20.73-4.29,31.18-6,19.7-3.2,39.44-6.15,59.19-9.09,5.31-.79,10.66-1.28,16-1.74,16.79-1.46,33.57-3.08,50.38-4.17,19.57-1.27,39.17-2.72,58.77-2.87,25.35-.19,50.71.82,76.07,1.32,1.12,0,2.24.14,3.37.17,3,.09,3.57-1.18,3.31-4.2-.7-8-1-16.1-1-24.15,0-1.68,1.5-3.85,2.95-4.91,1.27-.92,3.49-.89,5.2-.64.42.07.74,2.63.66,4-.35,6.19-1,12.36-1.26,18.55-.19,4.92,1.51,6.42,6.56,6.42q80.06,0,160.12,0c5.13,0,5.8-.71,5.81-5.91,0-6.13-.11-12.25,0-18.37,0-1.77-1.23-4.51,1.77-4.94a5.84,5.84,0,0,1,6.51,3.94,9,9,0,0,1,.63,3.3c0,6.49.19,13-.17,19.48-.32,6-3.76,8.88-9.76,8.89H565.52c-1.56,0-3.12.19-4.68.29C560.79,332.5,560.73,332.9,560.67,333.31Z" transform="translate(-5.35 -6)"/><path d="M319.91,6.11c25,0,50,.25,75-.11,12.07-.17,17.86,9.18,16.44,19.85-.48,3.6-2.56,5.2-6,5.5-9.12.79-9,.78-7.58,9.84,2.05,12.81,3.87,25.66,5.93,38.46,1.63,10.23,3.45,20.42,5.22,30.62.49,2.85,2.1,4.4,5.13,4.31,2.25-.06,4.5,0,6.75,0,4.22-.07,5.59-1.33,5.63-5.66.09-10.5,0-21,.08-31.5,0-5.32,2.87-7.83,8.05-7.42,4,.32,6.24,2.64,6.26,6.9.05,10.49.1,21-.05,31.49,0,3.14.74,5.61,3.26,7.51,2.84,2.15,3.66,5.1,3.66,8.57,0,21.74.08,43.49.11,65.23a20.75,20.75,0,0,1-.3,4.47c-1.28,5.72-2.61,6.75-8.47,6.74-31.25,0-62.49-.27-93.73-.07-8.35.05-15.31-2.32-22.41-6.71-7.86-4.85-16.43-9.81-25.31-11.47-11-2-22.42-3.83-33.87-1.91-8.7,1.46-17.72,1-26.06,4.63-4.21,1.84-8.58,3.29-12.84,5-4.47,1.83-6.37.44-5.9-4.43q4.58-47.52,9.15-95c2.57-26.22,5.26-52.44,7.92-78.66.48-4.78,1.83-6.09,6.72-6.1q38.61-.07,77.23,0Zm-1.34,26.21H265.33c-5.55,0-5.57,0-5.94,5.39q-1.93,28.59-3.85,57.19c-.5,7.29,0,7.86,7.49,7.89l97.85.39c5.27,0,5.27,0,5.27,5.43q0,25.68,0,51.36c0,5.76.86,6.61,6.76,6.87,5.37.23,10.74.39,16.1.7,5.15.29,6.13-.61,5.47-5.6q-2.13-16.33-4.32-32.67c-1.42-10.64-2.89-21.28-4.28-31.92-1.72-13.23-3.38-26.47-5.06-39.71-.89-6.93-1.84-13.85-2.64-20.79-.41-3.49-2-4.67-5.64-4.62C354.56,32.44,336.57,32.32,318.57,32.32Zm-19.8,134.25c17,0,34-.08,51,.06,3.42,0,4.69-1.19,4.67-4.5-.07-14.87,0-29.73,0-44.59,0-2.86-1-4.2-4.18-4.19q-51.15.15-102.3,0c-3.12,0-4.67,1.2-4.66,4.37.05,14.74.14,29.47.06,44.21,0,3.6,1.38,4.69,4.89,4.66C265,166.48,281.9,166.56,298.77,166.57Z" transform="translate(-5.35 -6)"/><path d="M468.75,168.05q0-20.43,0-40.87c0-7.05,2.11-9,9.1-8.37,5.48.46,11,.78,16.44,1.28,3.45.32,4.79-1.26,4.78-4.54,0-9.87.05-19.74-.05-29.61-.08-7.59,1.24-9.06,8.86-9,2.62,0,5.25.09,7.86.35,5,.51,8,3,8.59,7.83.18,1.59-1.32,4.41-2.74,5-5.27,2.12-6.49,5.79-6.06,11a110.5,110.5,0,0,1,0,13.86c-.15,3.57,1,5.14,4.81,5.43,12.69,1,25.39,2,38,3.55,8.77,1.1,17.45,3,26.1,4.85s17.46,4.09,26.17,6.22,10.56,4.37,10.61,13.1q.19,35.8.18,71.62c0,5.49-1.34,6.77-6.11,6.69-29.86-.52-59.72-1.1-89.58-1.43-16.25-.17-32.5.13-48.75.19-5.4,0-6.35-.25-7.12-5.52-.62-7-.62-13.7-.77-20.67-.22-10.24-.37-20.27-.37-30.52C468.86,168.47,468.63,168.05,468.75,168.05Zm55.2-5.43v.16h41.24c9.87,0,14.34,4.46,14.43,14.42q.09,12,0,24c0,2.21.8,4,3,3.77.79-.07,2-2.34,2-3.62.17-8.62.19-17.25,0-25.87a23.77,23.77,0,0,0-1.47-8.36c-2.84-6.84-9.23-8.67-15.62-8.73-28.74-.27-57.49-.1-86.23-.07a8.25,8.25,0,0,0-3,.23,2.52,2.52,0,0,0-1.32,1.86,2.45,2.45,0,0,0,1.2,1.94,9.92,9.92,0,0,0,3.33.27Q502.76,162.64,524,162.62Zm-.94,8.67v-.24c-13.49,0-27,0-40.48,0-1.64,0-3.88-.47-3.91,2.23s2.16,2.29,3.84,2.3q40.11.22,80.22.4c.74,0,1.66.19,2.2-.17a14.62,14.62,0,0,0,2.37-2.35c-.75-.69-1.4-1.71-2.28-2a12.39,12.39,0,0,0-3.72-.19Z" transform="translate(-5.35 -6)"/><path d="M273.52,331.41c-40-.87-71.41-33.45-69.62-73.91,1.7-38.24,34.52-67.41,71.92-67,43.75.44,73.09,35.22,71.15,73.9C345,302.87,312.17,332,273.52,331.41Zm-25.22-71c0,15.11,11.87,27.23,26.79,26.78,17.09-.51,26.78-12.78,26.73-26.62-.07-16.08-12.55-26.49-26.76-26.53A26.39,26.39,0,0,0,248.3,260.4Z" transform="translate(-5.35 -6)"/><path d="M585.65,296.46q-34.1,0-68.2,0a30.26,30.26,0,0,1-4.86-.21c-2.33-.39-3.35-1.66-2.75-4.26,2.62-11.3,2.57-11.31,14.29-11.32,3.5,0,7-.05,10.5,0,3.08.06,4.76-1.34,5.6-4.34,1.61-5.75,3-11.62,5.38-17.07,4-9.39,11.66-14.85,21.4-17.68,11.48-3.33,22.72-3,32.75,3.71,9.61,6.4,17.24,14.66,18.67,27,.8,6.89,2.63,8.32,9.38,8.33,8.12,0,16.24,0,24.36,0,5.08,0,6.33,1,7.81,5.76.14.48.31.95.43,1.43,1.89,7.49,1.06,8.58-6.56,8.58ZM564,277.79c-.8,7.14,6.29,15.07,14.73,15.17,8,.1,15.3-6.88,15.31-14.75A15.1,15.1,0,0,0,578.9,262.9C571.38,262.88,563.47,269,564,277.79Z" transform="translate(-5.35 -6)"/><path d="M424.32,281.93H399.21c-7.42,0-11.31-3.53-12.06-10.85-.91-8.88-.91-8.86-10-8.75-3.75,0-7.49.05-11.24,0-3.94-.1-5.3-1.35-5.32-5.14q-.12-20.05-.05-40.1c0-4.3,1.54-5.54,6.63-5.5,21.23.15,42.47.38,63.71.52,5.87,0,11.74-.32,17.6-.13a33.21,33.21,0,0,1,8.75,1.63,8.87,8.87,0,0,1,6.24,8.71q0,24.91,0,49.84c0,5.78-1.7,8.34-7.35,8.89-7.92.77-15.92.68-23.89.91C429.57,282,426.94,281.93,424.32,281.93Zm1.18-10.34v.06c8.24,0,16.48-.09,24.72.05,2.62.05,3.56-.85,3.57-3.42.09-13.35.26-26.71.42-40.06,0-3.25-1-4.95-4.78-4.91-16.23.19-32.46.15-48.69,0-3.3,0-4.36,1.13-4.34,4.35.11,13.23.12,26.47,0,39.7,0,3.36,1.24,4.32,4.42,4.26C409,271.49,417.26,271.59,425.5,271.59Z" transform="translate(-5.35 -6)"/><path d="M563.16,235.51c-.72,1.13-2.23,1.45-3.45,1.92-9.44,3.65-15.64,10.91-20.83,19.07-2.13,3.35-4.45,4.95-8.39,5-16.84.07-33.69.33-50.53.51-6.56.06-8.82-2.15-8.85-8.67,0-5.12,0-10.24.09-15.35.11-4.55,1.41-5.92,5.84-5.89q41,.24,82,.64c1.42,0,3.55.09,4.33.9C563.62,233.88,563.37,235.19,563.16,235.51Z" transform="translate(-5.35 -6)"/><path d="M627.41,249.47c0,3.37,0,6.74,0,10.11,0,2,.05,4.57-2.59,4.54-1.38,0-3.35-1.6-4-3a43.13,43.13,0,0,0-15.77-18.57c-4-2.57-8.84-3.79-13.18-5.87-1.15-.55-3.24-.78-2.87-2.84.31-1.71,2.12-1.55,3.42-1.68,9.63-1.33,19.38-.43,29.06-.21a5.72,5.72,0,0,1,6,5.88c.16,3.86,0,7.74,0,11.61Z" transform="translate(-5.35 -6)"/><path d="M177.13,227c.07-8,5.54-13.33,13.56-13.21,7.39.11,13.07,6.26,13.27,13.93.23,8.53-7.28,13.49-13.56,13.51C182.91,241.21,177.06,234.75,177.13,227Z" transform="translate(-5.35 -6)"/><path class="cls-1" d="M298.77,166.56c-16.87,0-33.73-.08-50.59.06-3.51,0-4.91-1.06-4.89-4.66.08-14.74,0-29.47-.06-44.21,0-3.17,1.54-4.37,4.66-4.37q51.15.08,102.3,0c3.22,0,4.18,1.33,4.18,4.19,0,14.86,0,29.72,0,44.59,0,3.31-1.25,4.53-4.67,4.5C332.74,166.49,315.75,166.57,298.77,166.56Z" transform="translate(-5.35 -6)"/><path class="cls-1" d="M524,162.62q-21.18,0-42.37,0a9.92,9.92,0,0,1-3.33-.27,2.45,2.45,0,0,1-1.2-1.94,2.52,2.52,0,0,1,1.32-1.86,8.25,8.25,0,0,1,3-.23c28.74,0,57.49-.2,86.23.07,6.39.06,12.78,1.89,15.62,8.73a23.77,23.77,0,0,1,1.47,8.36c.19,8.62.17,17.25,0,25.87,0,1.28-1.19,3.55-2,3.62-2.21.19-3-1.56-3-3.77q.06-12,0-24c-.09-10-4.56-14.41-14.43-14.42H524Z" transform="translate(-5.35 -6)"/><path class="cls-1" d="M523,171.29h38.24a12.39,12.39,0,0,1,3.72.19c.88.29,1.53,1.31,2.28,2a14.62,14.62,0,0,1-2.37,2.35c-.54.36-1.46.17-2.2.17q-40.11-.19-80.22-.4c-1.68,0-3.86.37-3.84-2.3s2.27-2.23,3.91-2.23c13.49-.05,27,0,40.48,0Z" transform="translate(-5.35 -6)"/><path class="cls-1" d="M425.5,271.59c-8.24,0-16.49-.1-24.72.06-3.18.06-4.46-.9-4.42-4.26.16-13.23.15-26.47,0-39.7,0-3.22,1-4.38,4.34-4.35,16.23.12,32.46.16,48.69,0,3.81,0,4.82,1.66,4.78,4.91-.16,13.35-.33,26.71-.42,40.06,0,2.57-1,3.47-3.57,3.42-8.24-.14-16.48-.05-24.72-.05Z" transform="translate(-5.35 -6)"/><text class="cls-2" transform="translate(198.61 462.42)">zphalltalhasa</text><text class="cls-3" transform="translate(249.98 598.73)">+966 53 717 7799</text><rect class="cls-4" x="36.8" y="521.51" width="293.57" height="6.02"/><rect class="cls-4" x="525.56" y="521.51" width="293.57" height="6.02"/><path class="cls-4" d="M363.21,538.83a6.75,6.75,0,0,1-5.45-2.34A7.86,7.86,0,0,1,356,531.2V527l5.12-2.7v6.56a3.2,3.2,0,0,0,.68,2.31,3.07,3.07,0,0,0,2.23.68h13.36a2.94,2.94,0,0,0,2.21-.7,3.26,3.26,0,0,0,.66-2.29v-7.54l5.16-2.71V531.2a7.42,7.42,0,0,1-2.33,5.82,7.68,7.68,0,0,1-5.25,1.81Zm3.94-19.06a2.61,2.61,0,0,1-2-.76,2.73,2.73,0,0,1-.74-2,2.61,2.61,0,0,1,.74-1.93,2.67,2.67,0,0,1,2-.74,2.6,2.6,0,0,1,1.94.72,2.63,2.63,0,0,1,.72,1.95C369.81,518.86,368.92,519.77,367.15,519.77Zm6.31,0a2.63,2.63,0,0,1-2-.74,2.71,2.71,0,0,1-.74-2,2.38,2.38,0,0,1,2.71-2.67,2.6,2.6,0,0,1,1.94.72,2.63,2.63,0,0,1,.72,1.95C376.12,518.86,375.23,519.77,373.46,519.77Z" transform="translate(-5.35 -6)"/><path class="cls-4" d="M411,515.14l5.17-2.74v17.9a8.5,8.5,0,0,1-2.42,6.35,8.19,8.19,0,0,1-5.94,2.18H392.32l2.58-5h5.41v-13.4l5.16-2.75v16.15h2a3.7,3.7,0,0,0,2.69-.82,4,4,0,0,0,.79-2.79Z" transform="translate(-5.35 -6)"/><path class="cls-4" d="M435.11,537.64a14,14,0,0,1-2.62.24,7.31,7.31,0,0,1-6-2.82,9.1,9.1,0,0,1-1.85-5.74,9.85,9.85,0,0,1,2.46-7.09,7.54,7.54,0,0,1,5.74-2.3,7.15,7.15,0,0,1,5.69,2.34,7.65,7.65,0,0,1,1.77,5.25v8.76a10.92,10.92,0,0,1-2.54,7.63,8.35,8.35,0,0,1-6.48,2.62,10.2,10.2,0,0,1-5-1.39v-4.47a8.81,8.81,0,0,0,4.43,1.27C433.3,541.94,434.79,540.5,435.11,537.64Zm0-10.21c0-1.8-.77-2.7-2.33-2.7a2.7,2.7,0,0,0-2.32,1.19,5.5,5.5,0,0,0-.84,3.23q0,4.35,3.12,4.35a3,3,0,0,0,2.37-.82Z" transform="translate(-5.35 -6)"/><path class="cls-4" d="M457.17,538.83a7.25,7.25,0,0,1-5.78-2.38,7.86,7.86,0,0,1-1.76-5.29V515.1l5.17-2.7v18.52a3.19,3.19,0,0,0,.65,2.27,3,3,0,0,0,2.21.68h3.69v5Z" transform="translate(-5.35 -6)"/><path class="cls-4" d="M458.89,538.83v-5h7.21v5Z" transform="translate(-5.35 -6)"/><path class="cls-4" d="M483.19,533.87h6.48v5H480a14.61,14.61,0,0,1-3.27-.29,15.42,15.42,0,0,1-3.28.29h-9.75v-5h6.47a9.51,9.51,0,0,1-1.56-5.08,9.1,9.1,0,0,1,2.42-6.6,7.58,7.58,0,0,1,5.7-2.26,7.38,7.38,0,0,1,6.22,2.91,9.78,9.78,0,0,1,.29,11ZM473.52,517a2.54,2.54,0,0,1-2.7-2.75,2.37,2.37,0,0,1,2.7-2.66,2.67,2.67,0,0,1,2,.71,2.63,2.63,0,0,1,.71,1.95C476.18,516.11,475.3,517,473.52,517Zm3.12,16.39a5.53,5.53,0,0,0,2.27-2,5.26,5.26,0,0,0,.88-2.89,4.2,4.2,0,0,0-.84-2.77,2.81,2.81,0,0,0-2.27-1q-3.12,0-3.12,3.73a5.54,5.54,0,0,0,.86,3A5.11,5.11,0,0,0,476.64,533.42ZM479.83,517a2.54,2.54,0,0,1-2.7-2.75,2.37,2.37,0,0,1,2.7-2.66,2.67,2.67,0,0,1,1.95.71,2.63,2.63,0,0,1,.72,1.95C482.5,516.11,481.61,517,479.83,517Z" transform="translate(-5.35 -6)"/><path class="cls-4" d="M487.21,538.83v-5h7.21v5Z" transform="translate(-5.35 -6)"/><path class="cls-4" d="M498.52,527.52a7.67,7.67,0,0,1,13.76-4.59,11.76,11.76,0,0,1-.49,13.6,7.29,7.29,0,0,1-5.53,2.3,9.3,9.3,0,0,1-5.37-1.44,7.81,7.81,0,0,1-4.75,1.44H492v-5h3.69a3,3,0,0,0,2.21-.68,3.19,3.19,0,0,0,.66-2.27Zm5.16,4.05c0,1.53.81,2.3,2.42,2.3q3,0,3-4.67,0-4.47-3.16-4.47c-1.53,0-2.29.9-2.29,2.7Z" transform="translate(-5.35 -6)"/></svg>